<mxfile host="app.diagrams.net" agent="Mozilla/5.0 (Windows NT 10.0; Win64; x64) AppleWebKit/537.36 (KHTML, like Gecko) Chrome/131.0.0.0 Safari/537.36" version="25.0.3">
  <diagram name="Page-1" id="2YBvvXClWsGukQMizWep">
    <mxGraphModel dx="636" dy="338" grid="1" gridSize="10" guides="1" tooltips="1" connect="1" arrows="1" fold="1" page="1" pageScale="1" pageWidth="850" pageHeight="1100" math="0" shadow="0">
      <root>
        <mxCell id="0" />
        <mxCell id="1" parent="0" />
        <mxCell id="B_63GF_-fLmtZrkJB3Fl-47" value="" style="rounded=0;whiteSpace=wrap;html=1;fillStyle=cross-hatch;gradientColor=none;gradientDirection=radial;fillColor=none;" parent="1" vertex="1">
          <mxGeometry x="140" y="166" width="675" height="264" as="geometry" />
        </mxCell>
        <mxCell id="B_63GF_-fLmtZrkJB3Fl-48" value="Utente" style="shape=umlLifeline;perimeter=lifelinePerimeter;whiteSpace=wrap;html=1;container=0;dropTarget=0;collapsible=0;recursiveResize=0;outlineConnect=0;portConstraint=eastwest;newEdgeStyle={&quot;edgeStyle&quot;:&quot;elbowEdgeStyle&quot;,&quot;elbow&quot;:&quot;vertical&quot;,&quot;curved&quot;:0,&quot;rounded&quot;:0};" parent="1" vertex="1">
          <mxGeometry x="140" y="70" width="100" height="390" as="geometry" />
        </mxCell>
        <mxCell id="B_63GF_-fLmtZrkJB3Fl-49" value="" style="html=1;points=[];perimeter=orthogonalPerimeter;outlineConnect=0;targetShapes=umlLifeline;portConstraint=eastwest;newEdgeStyle={&quot;edgeStyle&quot;:&quot;elbowEdgeStyle&quot;,&quot;elbow&quot;:&quot;vertical&quot;,&quot;curved&quot;:0,&quot;rounded&quot;:0};" parent="B_63GF_-fLmtZrkJB3Fl-48" vertex="1">
          <mxGeometry x="45" y="70" width="10" height="280" as="geometry" />
        </mxCell>
        <mxCell id="B_63GF_-fLmtZrkJB3Fl-50" value="Esecuzione Applicazione" style="html=1;verticalAlign=bottom;startArrow=oval;endArrow=block;startSize=8;edgeStyle=elbowEdgeStyle;elbow=vertical;curved=0;rounded=0;" parent="B_63GF_-fLmtZrkJB3Fl-48" target="B_63GF_-fLmtZrkJB3Fl-49" edge="1">
          <mxGeometry x="-0.0303" relative="1" as="geometry">
            <mxPoint x="-120" y="70" as="sourcePoint" />
            <Array as="points">
              <mxPoint x="-120" y="70" />
            </Array>
            <mxPoint as="offset" />
          </mxGeometry>
        </mxCell>
        <mxCell id="B_63GF_-fLmtZrkJB3Fl-51" value="Elenco Telefonico" style="shape=umlLifeline;perimeter=lifelinePerimeter;whiteSpace=wrap;html=1;container=0;dropTarget=0;collapsible=0;recursiveResize=0;outlineConnect=0;portConstraint=eastwest;newEdgeStyle={&quot;edgeStyle&quot;:&quot;elbowEdgeStyle&quot;,&quot;elbow&quot;:&quot;vertical&quot;,&quot;curved&quot;:0,&quot;rounded&quot;:0};" parent="1" vertex="1">
          <mxGeometry x="320" y="70" width="100" height="390" as="geometry" />
        </mxCell>
        <mxCell id="B_63GF_-fLmtZrkJB3Fl-52" value="" style="html=1;points=[];perimeter=orthogonalPerimeter;outlineConnect=0;targetShapes=umlLifeline;portConstraint=eastwest;newEdgeStyle={&quot;edgeStyle&quot;:&quot;elbowEdgeStyle&quot;,&quot;elbow&quot;:&quot;vertical&quot;,&quot;curved&quot;:0,&quot;rounded&quot;:0};" parent="B_63GF_-fLmtZrkJB3Fl-51" vertex="1">
          <mxGeometry x="45" y="80" width="10" height="260" as="geometry" />
        </mxCell>
        <mxCell id="B_63GF_-fLmtZrkJB3Fl-53" value="modificaContatto(Contatto c)" style="html=1;verticalAlign=bottom;endArrow=block;edgeStyle=elbowEdgeStyle;elbow=horizontal;curved=0;rounded=0;" parent="1" source="B_63GF_-fLmtZrkJB3Fl-49" target="B_63GF_-fLmtZrkJB3Fl-52" edge="1">
          <mxGeometry relative="1" as="geometry">
            <mxPoint x="295" y="160" as="sourcePoint" />
            <Array as="points">
              <mxPoint x="280" y="150" />
            </Array>
          </mxGeometry>
        </mxCell>
        <mxCell id="B_63GF_-fLmtZrkJB3Fl-54" value="Contatto" style="shape=umlLifeline;perimeter=lifelinePerimeter;whiteSpace=wrap;html=1;container=0;dropTarget=0;collapsible=0;recursiveResize=0;outlineConnect=0;portConstraint=eastwest;newEdgeStyle={&quot;edgeStyle&quot;:&quot;elbowEdgeStyle&quot;,&quot;elbow&quot;:&quot;vertical&quot;,&quot;curved&quot;:0,&quot;rounded&quot;:0};" parent="1" vertex="1">
          <mxGeometry x="525" y="70" width="100" height="390" as="geometry" />
        </mxCell>
        <mxCell id="B_63GF_-fLmtZrkJB3Fl-55" value="" style="html=1;points=[];perimeter=orthogonalPerimeter;outlineConnect=0;targetShapes=umlLifeline;portConstraint=eastwest;newEdgeStyle={&quot;edgeStyle&quot;:&quot;elbowEdgeStyle&quot;,&quot;elbow&quot;:&quot;vertical&quot;,&quot;curved&quot;:0,&quot;rounded&quot;:0};" parent="B_63GF_-fLmtZrkJB3Fl-54" vertex="1">
          <mxGeometry x="45" y="70" width="10" height="260" as="geometry" />
        </mxCell>
        <mxCell id="B_63GF_-fLmtZrkJB3Fl-56" style="edgeStyle=elbowEdgeStyle;rounded=0;orthogonalLoop=1;jettySize=auto;html=1;elbow=vertical;curved=0;" parent="B_63GF_-fLmtZrkJB3Fl-54" source="B_63GF_-fLmtZrkJB3Fl-59" target="B_63GF_-fLmtZrkJB3Fl-59" edge="1">
          <mxGeometry relative="1" as="geometry">
            <Array as="points">
              <mxPoint x="100" y="300" />
            </Array>
          </mxGeometry>
        </mxCell>
        <mxCell id="B_63GF_-fLmtZrkJB3Fl-59" value="" style="html=1;points=[];perimeter=orthogonalPerimeter;outlineConnect=0;targetShapes=umlLifeline;portConstraint=eastwest;newEdgeStyle={&quot;edgeStyle&quot;:&quot;elbowEdgeStyle&quot;,&quot;elbow&quot;:&quot;vertical&quot;,&quot;curved&quot;:0,&quot;rounded&quot;:0};" parent="B_63GF_-fLmtZrkJB3Fl-54" vertex="1">
          <mxGeometry x="49.75" y="274" width="10" height="40" as="geometry" />
        </mxCell>
        <mxCell id="B_63GF_-fLmtZrkJB3Fl-60" value="&lt;font style=&quot;font-size: 7px;&quot;&gt;setNome(Stirng nome)&lt;br&gt;setCognome(Stirng cognome)&lt;/font&gt;&lt;div&gt;&lt;font style=&quot;font-size: 7px;&quot;&gt;setNumTel(String numTel)&lt;/font&gt;&lt;/div&gt;&lt;div&gt;&lt;font style=&quot;font-size: 7px;&quot;&gt;setEmail(String email)&lt;/font&gt;&lt;/div&gt;" style="html=1;verticalAlign=bottom;endArrow=block;edgeStyle=elbowEdgeStyle;elbow=horizontal;curved=0;rounded=0;" parent="1" source="B_63GF_-fLmtZrkJB3Fl-52" target="B_63GF_-fLmtZrkJB3Fl-55" edge="1">
          <mxGeometry relative="1" as="geometry">
            <mxPoint x="380" y="160" as="sourcePoint" />
            <Array as="points">
              <mxPoint x="465" y="160" />
            </Array>
            <mxPoint x="550" y="160" as="targetPoint" />
            <mxPoint as="offset" />
          </mxGeometry>
        </mxCell>
        <mxCell id="B_63GF_-fLmtZrkJB3Fl-61" value="alt" style="rounded=0;whiteSpace=wrap;html=1;fillColor=none;" parent="1" vertex="1">
          <mxGeometry x="140" y="166" width="40" height="20" as="geometry" />
        </mxCell>
        <mxCell id="B_63GF_-fLmtZrkJB3Fl-62" value="&lt;span style=&quot;font-size: 6px;&quot;&gt;[(nomePresente or cognomePresente) == true]&lt;/span&gt;" style="text;html=1;align=center;verticalAlign=middle;whiteSpace=wrap;rounded=0;" parent="1" vertex="1">
          <mxGeometry x="580" y="163" width="130" height="10" as="geometry" />
        </mxCell>
        <mxCell id="B_63GF_-fLmtZrkJB3Fl-63" value="" style="endArrow=none;dashed=1;html=1;rounded=0;exitX=0;exitY=0.525;exitDx=0;exitDy=0;exitPerimeter=0;entryX=1.002;entryY=0.607;entryDx=0;entryDy=0;entryPerimeter=0;" parent="1" target="B_63GF_-fLmtZrkJB3Fl-47" edge="1">
          <mxGeometry width="50" height="50" relative="1" as="geometry">
            <mxPoint x="142.5" y="327.62" as="sourcePoint" />
            <mxPoint x="962.5" y="328.37" as="targetPoint" />
            <Array as="points" />
          </mxGeometry>
        </mxCell>
        <mxCell id="B_63GF_-fLmtZrkJB3Fl-65" value="return" style="html=1;verticalAlign=bottom;endArrow=open;dashed=1;endSize=8;edgeStyle=elbowEdgeStyle;elbow=vertical;curved=0;rounded=0;" parent="1" edge="1">
          <mxGeometry relative="1" as="geometry">
            <mxPoint x="195" y="310" as="targetPoint" />
            <Array as="points">
              <mxPoint x="335" y="310" />
              <mxPoint x="300" y="310" />
            </Array>
            <mxPoint x="365" y="310.23" as="sourcePoint" />
          </mxGeometry>
        </mxCell>
        <mxCell id="B_63GF_-fLmtZrkJB3Fl-66" value="&lt;span style=&quot;font-size: 8px;&quot;&gt;GestioneFileEsternoContatti&lt;/span&gt;" style="shape=umlLifeline;perimeter=lifelinePerimeter;whiteSpace=wrap;html=1;container=0;dropTarget=0;collapsible=0;recursiveResize=0;outlineConnect=0;portConstraint=eastwest;newEdgeStyle={&quot;edgeStyle&quot;:&quot;elbowEdgeStyle&quot;,&quot;elbow&quot;:&quot;vertical&quot;,&quot;curved&quot;:0,&quot;rounded&quot;:0};" parent="1" vertex="1">
          <mxGeometry x="740" y="70" width="100" height="390" as="geometry" />
        </mxCell>
        <mxCell id="B_63GF_-fLmtZrkJB3Fl-67" value="" style="html=1;points=[];perimeter=orthogonalPerimeter;outlineConnect=0;targetShapes=umlLifeline;portConstraint=eastwest;newEdgeStyle={&quot;edgeStyle&quot;:&quot;elbowEdgeStyle&quot;,&quot;elbow&quot;:&quot;vertical&quot;,&quot;curved&quot;:0,&quot;rounded&quot;:0};" parent="B_63GF_-fLmtZrkJB3Fl-66" vertex="1">
          <mxGeometry x="45" y="110" width="10" height="120" as="geometry" />
        </mxCell>
        <mxCell id="B_63GF_-fLmtZrkJB3Fl-71" value="" style="html=1;verticalAlign=bottom;endArrow=block;edgeStyle=elbowEdgeStyle;elbow=horizontal;curved=0;rounded=0;" parent="1" edge="1">
          <mxGeometry x="0.0146" relative="1" as="geometry">
            <mxPoint x="581" y="210" as="sourcePoint" />
            <Array as="points">
              <mxPoint x="671" y="210" />
            </Array>
            <mxPoint x="786" y="210" as="targetPoint" />
            <mxPoint as="offset" />
          </mxGeometry>
        </mxCell>
        <mxCell id="OJ0ytBHaxNgGoH-z7ZcF-1" value="&lt;span style=&quot;font-size: 9px;&quot;&gt;salvaContattiInfoCSV()&lt;/span&gt;" style="edgeLabel;html=1;align=center;verticalAlign=middle;resizable=0;points=[];" vertex="1" connectable="0" parent="B_63GF_-fLmtZrkJB3Fl-71">
          <mxGeometry x="-0.066" relative="1" as="geometry">
            <mxPoint y="-10" as="offset" />
          </mxGeometry>
        </mxCell>
        <mxCell id="B_63GF_-fLmtZrkJB3Fl-73" value="return&lt;div&gt;sort()&lt;/div&gt;" style="html=1;verticalAlign=bottom;endArrow=open;dashed=1;endSize=8;edgeStyle=elbowEdgeStyle;elbow=horizontal;curved=0;rounded=0;" parent="1" source="B_63GF_-fLmtZrkJB3Fl-55" target="B_63GF_-fLmtZrkJB3Fl-52" edge="1">
          <mxGeometry relative="1" as="geometry">
            <mxPoint x="400" y="244.62" as="targetPoint" />
            <Array as="points">
              <mxPoint x="500" y="300" />
            </Array>
            <mxPoint x="535" y="245" as="sourcePoint" />
          </mxGeometry>
        </mxCell>
        <mxCell id="B_63GF_-fLmtZrkJB3Fl-76" value="return" style="html=1;verticalAlign=bottom;endArrow=open;dashed=1;endSize=8;edgeStyle=elbowEdgeStyle;elbow=vertical;curved=0;rounded=0;" parent="1" edge="1">
          <mxGeometry relative="1" as="geometry">
            <mxPoint x="195" y="400" as="targetPoint" />
            <Array as="points">
              <mxPoint x="335" y="400" />
              <mxPoint x="300" y="400" />
            </Array>
            <mxPoint x="365" y="400.23" as="sourcePoint" />
          </mxGeometry>
        </mxCell>
        <mxCell id="B_63GF_-fLmtZrkJB3Fl-64" value="&lt;font style=&quot;font-size: 7px;&quot;&gt;[else]&lt;/font&gt;" style="text;html=1;align=center;verticalAlign=middle;whiteSpace=wrap;rounded=0;rotation=0;" parent="1" vertex="1">
          <mxGeometry x="581" y="333" width="19" as="geometry" />
        </mxCell>
        <mxCell id="B_63GF_-fLmtZrkJB3Fl-78" value="return" style="html=1;verticalAlign=bottom;endArrow=open;dashed=1;endSize=8;edgeStyle=elbowEdgeStyle;elbow=horizontal;curved=0;rounded=0;" parent="1" edge="1">
          <mxGeometry relative="1" as="geometry">
            <mxPoint x="375" y="390" as="targetPoint" />
            <Array as="points">
              <mxPoint x="500" y="390" />
            </Array>
            <mxPoint x="570" y="390" as="sourcePoint" />
          </mxGeometry>
        </mxCell>
        <mxCell id="OJ0ytBHaxNgGoH-z7ZcF-2" value="return" style="html=1;verticalAlign=bottom;endArrow=open;dashed=1;endSize=8;edgeStyle=elbowEdgeStyle;elbow=horizontal;curved=0;rounded=0;" edge="1" parent="1" source="B_63GF_-fLmtZrkJB3Fl-67">
          <mxGeometry relative="1" as="geometry">
            <mxPoint x="580" y="290" as="targetPoint" />
            <Array as="points">
              <mxPoint x="704.5" y="290" />
            </Array>
            <mxPoint x="775" y="290" as="sourcePoint" />
          </mxGeometry>
        </mxCell>
      </root>
    </mxGraphModel>
  </diagram>
</mxfile>
